REM DIRINDEX 1\2,1\4,1\5,1\6,1\7,1\3\8,1\3\9,1\3\10
REM DIRNAME cjc113,folder01,folder02,folder03,folder04,folder05,folder06,folder07,folder08,folder09
TITLE ""
FILE "DB4500_5th_5C_01.mp3" MP3
  TRACK 01 AUDIO
    TITLE "7:cjc113_3416"
    INDEX 01 00:00:00
  TRACK 02 AUDIO
    TITLE "8:cjc113_3417"
    INDEX 01 00:02:36
  TRACK 03 AUDIO
    TITLE "0:"
    INDEX 01 00:03:55
  TRACK 04 AUDIO
    TITLE "9:cjc113_3418"
    INDEX 01 00:03:66
  TRACK 05 AUDIO
    TITLE "0:"
    INDEX 01 00:05:10
  TRACK 06 AUDIO
    TITLE "10:cjc113_3419"
    INDEX 01 00:05:18
  TRACK 07 AUDIO
    TITLE "0:"
    INDEX 01 00:08:38
  TRACK 08 AUDIO
    TITLE "8:cjc113_3420"
    INDEX 01 00:08:72
  TRACK 09 AUDIO
    TITLE "0:"
    INDEX 01 00:10:10
  TRACK 10 AUDIO
    TITLE "9:cjc113_3421"
    INDEX 01 00:10:21
  TRACK 11 AUDIO
    TITLE "0:"
    INDEX 01 00:11:56
  TRACK 12 AUDIO
    TITLE "10:cjc113_3422"
    INDEX 01 00:11:66
  TRACK 13 AUDIO
    TITLE "0:"
    INDEX 01 00:14:66
  TRACK 14 AUDIO
    TITLE "8:cjc113_3423"
    INDEX 01 00:15:23
  TRACK 15 AUDIO
    TITLE "0:"
    INDEX 01 00:16:34
  TRACK 16 AUDIO
    TITLE "9:cjc113_3424"
    INDEX 01 00:16:42
  TRACK 17 AUDIO
    TITLE "0:"
    INDEX 01 00:18:01
  TRACK 18 AUDIO
    TITLE "10:cjc113_3425"
    INDEX 01 00:18:07
  TRACK 19 AUDIO
    TITLE "0:"
    INDEX 01 00:21:49
  TRACK 20 AUDIO
    TITLE "8:cjc113_3426"
    INDEX 01 00:22:05
  TRACK 21 AUDIO
    TITLE "0:"
    INDEX 01 00:23:06
  TRACK 22 AUDIO
    TITLE "9:cjc113_3427"
    INDEX 01 00:23:14
  TRACK 23 AUDIO
    TITLE "0:"
    INDEX 01 00:24:63
  TRACK 24 AUDIO
    TITLE "10:cjc113_3428"
    INDEX 01 00:25:01
  TRACK 25 AUDIO
    TITLE "0:"
    INDEX 01 00:28:23
  TRACK 26 AUDIO
    TITLE "8:cjc113_3429"
    INDEX 01 00:28:68
  TRACK 27 AUDIO
    TITLE "0:"
    INDEX 01 00:30:16
  TRACK 28 AUDIO
    TITLE "9:cjc113_3430"
    INDEX 01 00:30:30
  TRACK 29 AUDIO
    TITLE "0:"
    INDEX 01 00:32:17
  TRACK 30 AUDIO
    TITLE "10:cjc113_3431"
    INDEX 01 00:32:29
  TRACK 31 AUDIO
    TITLE "0:"
    INDEX 01 00:36:44
  TRACK 32 AUDIO
    TITLE "8:cjc113_3432"
    INDEX 01 00:37:08
  TRACK 33 AUDIO
    TITLE "0:"
    INDEX 01 00:38:31
  TRACK 34 AUDIO
    TITLE "9:cjc113_3433"
    INDEX 01 00:38:47
  TRACK 35 AUDIO
    TITLE "0:"
    INDEX 01 00:40:13
  TRACK 36 AUDIO
    TITLE "10:cjc113_3434"
    INDEX 01 00:40:30
  TRACK 37 AUDIO
    TITLE "0:"
    INDEX 01 00:44:03
  TRACK 38 AUDIO
    TITLE "8:cjc113_3435"
    INDEX 01 00:44:38
  TRACK 39 AUDIO
    TITLE "0:"
    INDEX 01 00:45:43
  TRACK 40 AUDIO
    TITLE "9:cjc113_3436"
    INDEX 01 00:45:57
  TRACK 41 AUDIO
    TITLE "0:"
    INDEX 01 00:47:13
  TRACK 42 AUDIO
    TITLE "10:cjc113_3437"
    INDEX 01 00:47:30
  TRACK 43 AUDIO
    TITLE "0:"
    INDEX 01 00:49:31
  TRACK 44 AUDIO
    TITLE "8:cjc113_3438"
    INDEX 01 00:49:69
  TRACK 45 AUDIO
    TITLE "0:"
    INDEX 01 00:51:07
  TRACK 46 AUDIO
    TITLE "9:cjc113_3439"
    INDEX 01 00:51:20
  TRACK 47 AUDIO
    TITLE "0:"
    INDEX 01 00:52:61
  TRACK 48 AUDIO
    TITLE "10:cjc113_3440"
    INDEX 01 00:53:02
  TRACK 49 AUDIO
    TITLE "0:"
    INDEX 01 00:57:09
  TRACK 50 AUDIO
    TITLE "8:cjc113_3441"
    INDEX 01 00:57:48
  TRACK 51 AUDIO
    TITLE "0:"
    INDEX 01 00:58:73
  TRACK 52 AUDIO
    TITLE "9:cjc113_3442"
    INDEX 01 00:59:16
  TRACK 53 AUDIO
    TITLE "0:"
    INDEX 01 01:01:25
  TRACK 54 AUDIO
    TITLE "10:cjc113_3443"
    INDEX 01 01:01:42
  TRACK 55 AUDIO
    TITLE "0:"
    INDEX 01 01:04:39
  TRACK 56 AUDIO
    TITLE "8:cjc113_3444"
    INDEX 01 01:05:05
  TRACK 57 AUDIO
    TITLE "0:"
    INDEX 01 01:07:55
  TRACK 58 AUDIO
    TITLE "9:cjc113_3445"
    INDEX 01 01:07:68
  TRACK 59 AUDIO
    TITLE "0:"
    INDEX 01 01:09:38
  TRACK 60 AUDIO
    TITLE "10:cjc113_3446"
    INDEX 01 01:09:54
  TRACK 61 AUDIO
    TITLE "0:"
    INDEX 01 01:13:16
  TRACK 62 AUDIO
    TITLE "8:cjc113_3447"
    INDEX 01 01:13:53
  TRACK 63 AUDIO
    TITLE "0:"
    INDEX 01 01:14:66
  TRACK 64 AUDIO
    TITLE "9:cjc113_3448"
    INDEX 01 01:15:09
  TRACK 65 AUDIO
    TITLE "0:"
    INDEX 01 01:16:18
  TRACK 66 AUDIO
    TITLE "10:cjc113_3449"
    INDEX 01 01:16:34
  TRACK 67 AUDIO
    TITLE "0:"
    INDEX 01 01:19:40
  TRACK 68 AUDIO
    TITLE "8:cjc113_3450"
    INDEX 01 01:20:04
  TRACK 69 AUDIO
    TITLE "0:"
    INDEX 01 01:21:12
  TRACK 70 AUDIO
    TITLE "9:cjc113_3451"
    INDEX 01 01:21:29
  TRACK 71 AUDIO
    TITLE "0:"
    INDEX 01 01:22:62
  TRACK 72 AUDIO
    TITLE "10:cjc113_3452"
    INDEX 01 01:23:03
  TRACK 73 AUDIO
    TITLE "0:"
    INDEX 01 01:25:37
